<?xml version="1.0" encoding="UTF-8"?>
<svg width="208px" height="75px" viewBox="0 0 208 75" version="1.1" xmlns="http://www.w3.org/2000/svg" xmlns:xlink="http://www.w3.org/1999/xlink">
    <!-- Generator: sketchtool 51.2 (57519) - http://www.bohemiancoding.com/sketch -->
    <title>25F4847B-0AB6-4CFA-BAA9-282540F5959B</title>
    <desc>Created with sketchtool.</desc>
    <defs>
        <linearGradient x1="-0.000106739936%" y1="50.0018294%" x2="100%" y2="50.0018294%" id="linearGradient-1">
            <stop stop-color="#F9B233" offset="0%"></stop>
            <stop stop-color="#E6332A" offset="100%"></stop>
        </linearGradient>
        <linearGradient x1="105.7876%" y1="50.0008827%" x2="5.79032905%" y2="50.0008827%" id="linearGradient-2">
            <stop stop-color="#F9B233" offset="0%"></stop>
            <stop stop-color="#E6332A" offset="100%"></stop>
        </linearGradient>
    </defs>
    <g id="-" stroke="none" stroke-width="1" fill="none" fill-rule="evenodd">
        <g id="home" transform="translate(-411.000000, -8.000000)" fill-rule="nonzero">
            <g id="DETTACHED-navigation---desktop" transform="translate(0.000000, 8.000000)">
                <g id="yu-energy-logo" transform="translate(411.000000, 0.000000)">
                    <path d="M3.9296875,50.8476562 C13.2121302,69.6475433 35.9769708,77.3634899 54.7773437,68.0820312 L21.1640625,0 C2.36593136,9.28398107 -5.34944174,32.0471297 3.9296875,50.8476562 Z" id="Shape" fill="url(#linearGradient-1)"></path>
                    <path d="M75.3359375,24.125 C66.0534948,5.32511295 43.2886542,-2.39083363 24.4882812,6.890625 L58.1015625,74.9765625 C76.9019481,65.6925329 84.6177053,42.9265024 75.3359375,24.125 Z" id="Shape" fill="url(#linearGradient-2)"></path>
                    <path d="M18.7773437,51.234375 C19.1690636,51.3990069 19.5741978,51.5296954 19.9882812,51.625 C20.4666982,51.7494942 20.9587823,51.8137932 21.453125,51.8164062 C23.015625,51.8164062 24.2265625,51.4648437 25.1015625,50.7734375 C25.9765625,50.0820312 26.7734375,48.9570312 27.4804687,47.3984375 C25.6992187,44.0130208 24.0364583,40.4114583 22.4921875,36.59375 C20.9613747,32.8230855 19.677415,28.9568531 18.6484375,25.0195313 L22.8945312,25.0195313 C23.2070312,26.3085938 23.5833333,27.6861979 24.0234375,29.1523437 C24.4570312,30.625 24.9492187,32.140625 25.484375,33.6953125 C26.0195312,35.25 26.6054687,36.8203125 27.2265625,38.3828125 C27.8476562,39.9453125 28.5,41.4414062 29.1796875,42.8828125 C30.2578125,39.9088542 31.1927083,36.9648437 31.984375,34.0507812 C32.7760417,31.1367187 33.5260417,28.1419271 34.234375,25.0664062 L38.3125,25.0664062 C37.2890625,29.2330729 36.1549479,33.2317708 34.9101562,37.0625 C33.6653646,40.8932292 32.3216146,44.4700521 30.8789062,47.7929687 C30.3836592,48.9361677 29.7943975,50.036297 29.1171875,51.0820312 C28.5645799,51.9389251 27.8834363,52.7057057 27.0976562,53.3554687 C26.3626543,53.9569342 25.5174706,54.4093795 24.609375,54.6875 C23.5928503,54.9719926 22.5396509,55.1036425 21.484375,55.078125 C21.1578716,55.0776068 20.8317181,55.056733 20.5078125,55.015625 C20.171875,54.9765625 19.8359375,54.9179687 19.5117187,54.8476562 C19.1875,54.7773437 18.890625,54.6992187 18.6210937,54.6132812 C18.4254797,54.5550009 18.2336996,54.484551 18.046875,54.4023437 L18.7773437,51.234375 Z" id="Shape" fill="#FFFFFF"></path>
                    <path d="M58.375,46.484375 C57.46875,46.7109375 56.2721354,46.9518229 54.7851562,47.2070312 C53.0803359,47.4810482 51.3555505,47.6117138 49.6289062,47.5976562 C48.1613176,47.6411711 46.6999898,47.38876 45.3320312,46.8554687 C44.2323478,46.4090471 43.2673108,45.6849329 42.53125,44.7539062 C41.7996514,43.8052918 41.2777341,42.7121945 41,41.546875 C40.6778819,40.206496 40.5217631,38.8316011 40.5351562,37.453125 L40.5351562,25.03125 L44.4921875,25.03125 L44.4921875,36.5820312 C44.4921875,39.2747396 44.9153646,41.2005208 45.7617187,42.359375 C46.6080729,43.5182292 48.0403646,44.0976562 50.0585937,44.0976562 C50.484375,44.0976562 50.9257812,44.0976562 51.3789062,44.0546875 C51.8320312,44.0117187 52.2539062,43.9921875 52.6484375,43.9492187 L53.734375,43.8242188 C53.9726286,43.8011158 54.2073241,43.7499811 54.4335937,43.671875 L54.4335937,25.03125 L58.3828125,25.03125 L58.375,46.484375 Z" id="Shape" fill="#FFFFFF"></path>
                    <path d="M18.7773437,51.234375 C19.1690636,51.3990069 19.5741978,51.5296954 19.9882812,51.625 C20.4666982,51.7494942 20.9587823,51.8137932 21.453125,51.8164062 C23.015625,51.8164062 24.2265625,51.4648437 25.1015625,50.7734375 C25.9765625,50.0820312 26.7734375,48.9570312 27.4804687,47.3984375 C25.6992187,44.0130208 24.0364583,40.4114583 22.4921875,36.59375 C20.9613747,32.8230855 19.677415,28.9568531 18.6484375,25.0195313 L22.8945312,25.0195313 C23.2070312,26.3085938 23.5833333,27.6861979 24.0234375,29.1523437 C24.4570312,30.625 24.9492187,32.140625 25.484375,33.6953125 C26.0195312,35.25 26.6054687,36.8203125 27.2265625,38.3828125 C27.8476562,39.9453125 28.5,41.4414062 29.1796875,42.8828125 C30.2578125,39.9088542 31.1927083,36.9648437 31.984375,34.0507812 C32.7760417,31.1367187 33.5260417,28.1419271 34.234375,25.0664062 L38.3125,25.0664062 C37.2890625,29.2330729 36.1549479,33.2317708 34.9101562,37.0625 C33.6653646,40.8932292 32.3216146,44.4700521 30.8789062,47.7929687 C30.3836592,48.9361677 29.7943975,50.036297 29.1171875,51.0820312 C28.5645799,51.9389251 27.8834363,52.7057057 27.0976562,53.3554687 C26.3626543,53.9569342 25.5174706,54.4093795 24.609375,54.6875 C23.5928503,54.9719926 22.5396509,55.1036425 21.484375,55.078125 C21.1578716,55.0776068 20.8317181,55.056733 20.5078125,55.015625 C20.171875,54.9765625 19.8359375,54.9179687 19.5117187,54.8476562 C19.1875,54.7773437 18.890625,54.6992187 18.6210937,54.6132812 C18.4254797,54.5550009 18.2336996,54.484551 18.046875,54.4023437 L18.7773437,51.234375 Z" id="Shape" fill="#FFFFFF"></path>
                    <path d="M58.375,46.484375 C57.46875,46.7109375 56.2721354,46.9518229 54.7851562,47.2070312 C53.0803359,47.4810482 51.3555505,47.6117138 49.6289062,47.5976562 C48.1613176,47.6411711 46.6999898,47.38876 45.3320312,46.8554687 C44.2323478,46.4090471 43.2673108,45.6849329 42.53125,44.7539062 C41.7996514,43.8052918 41.2777341,42.7121945 41,41.546875 C40.6778819,40.206496 40.5217631,38.8316011 40.5351562,37.453125 L40.5351562,25.03125 L44.4921875,25.03125 L44.4921875,36.5820312 C44.4921875,39.2747396 44.9153646,41.2005208 45.7617187,42.359375 C46.6080729,43.5182292 48.0403646,44.0976562 50.0585937,44.0976562 C50.484375,44.0976562 50.9257812,44.0976562 51.3789062,44.0546875 C51.8320312,44.0117187 52.2539062,43.9921875 52.6484375,43.9492187 L53.734375,43.8242188 C53.9726286,43.8011158 54.2073241,43.7499811 54.4335937,43.671875 L54.4335937,25.03125 L58.3828125,25.03125 L58.375,46.484375 Z" id="Shape" fill="#FFFFFF"></path>
                    <path d="M48.203125,20.3359375 C48.203117,19.1762953 47.2637983,18.2358228 46.104157,18.2343911 C44.9445157,18.2329595 44.0028777,19.1711099 44.0000064,20.3307485 C43.9971352,21.4903871 44.9341158,22.4331891 46.09375,22.4375 C46.6524714,22.439577 47.1890213,22.2190803 47.584832,21.8247356 C47.9806428,21.4303908 48.2031289,20.8946628 48.203125,20.3359375 Z" id="Shape" fill="#FFFFFF"></path>
                    <path d="M55.078125,20.3359375 C55.078125,19.1752766 54.1372234,18.234375 52.9765625,18.234375 C51.8159016,18.234375 50.875,19.1752766 50.875,20.3359375 C50.875,21.4965984 51.8159016,22.4375 52.9765625,22.4375 C54.1372234,22.4375 55.078125,21.4965984 55.078125,20.3359375 Z" id="Shape" fill="#FFFFFF"></path>
                    <polygon id="Shape" fill="#1D1D1B" points="89.2695312 42.4609375 89.2695312 28.03125 98.078125 28.03125 98.078125 29.7617187 91.2890625 29.7617187 91.2890625 34.0585938 97.328125 34.0585938 97.328125 35.7460938 91.2890625 35.7460938 91.2890625 40.7460938 98.5976563 40.7460938 98.5976563 42.4726562"></polygon>
                    <path d="M119.382812,42.4609375 C119.078125,41.9492187 118.726562,41.3710937 118.328125,40.734375 C117.929687,40.0976562 117.507812,39.4335937 117.050781,38.7460937 C116.59375,38.0585937 116.117187,37.359375 115.625,36.6523437 C115.132812,35.9453125 114.640625,35.2617187 114.15625,34.6015625 C113.671875,33.9414062 113.195312,33.3203125 112.738281,32.7382812 C112.28125,32.15625 111.855469,31.640625 111.46875,31.1757812 L111.46875,42.4609375 L109.488281,42.4609375 L109.488281,28.03125 L111.09375,28.03125 C111.746094,28.7265625 112.441406,29.5351562 113.1875,30.4570312 C113.933594,31.3789062 114.664062,32.3320312 115.394531,33.3085937 C116.125,34.2851562 116.808594,35.2617187 117.457031,36.1953125 C118.105469,37.1289062 118.628906,37.9765625 119.089844,38.7148437 L119.089844,28.03125 L121.070312,28.03125 L121.070312,42.4609375 L119.382812,42.4609375 Z" id="Shape" fill="#1D1D1B"></path>
                    <polygon id="Shape" fill="#1D1D1B" points="132.980469 42.4609375 132.980469 28.03125 141.796875 28.03125 141.796875 29.7617187 135 29.7617187 135 34.0585938 141.039062 34.0585938 141.039062 35.7460938 135 35.7460938 135 40.7460938 142.3125 40.7460938 142.3125 42.4726562"></polygon>
                    <path d="M160.261719,36.421875 C160.484375,36.6992187 160.765625,37.0664062 161.105469,37.515625 C161.445313,37.9648437 161.796875,38.46875 162.15625,39.015625 C162.515625,39.5625 162.875,40.1367187 163.230469,40.734375 C163.56334,41.2932028 163.865862,41.8695589 164.136719,42.4609375 L161.929688,42.4609375 C161.648438,41.9335937 161.347656,41.4023437 161.023438,40.859375 C160.699219,40.3164062 160.367188,39.8007812 160.03125,39.296875 C159.695313,38.7929687 159.371094,38.3398437 159.042969,37.9101562 C158.714844,37.4804687 158.421875,37.1054687 158.160156,36.7851562 C157.976563,36.7851562 157.792969,36.8085937 157.605469,36.8085937 L155.222656,36.8085937 L155.222656,42.4609375 L153.203125,42.4609375 L153.203125,28.2382812 C153.829796,28.0926385 154.467345,27.9985739 155.109375,27.9570312 C155.808594,27.9101562 156.449219,27.8828125 157.035156,27.8828125 C159.061198,27.8828125 160.605469,28.265625 161.667969,29.03125 C162.730469,29.796875 163.268229,30.9348958 163.28125,32.4453125 C163.299747,33.3281876 163.024996,34.1922806 162.5,34.9023437 C161.928124,35.6271954 161.14645,36.1578608 160.261719,36.421875 Z M157.199219,29.65625 C156.339844,29.65625 155.679688,29.65625 155.222656,29.71875 L155.222656,35.15625 L156.660156,35.15625 C157.285443,35.1601279 157.91036,35.1249029 158.53125,35.0507812 C159.019477,35.0051107 159.495665,34.8728363 159.9375,34.6601562 C160.306333,34.4784419 160.614401,34.1934453 160.824219,33.8398438 C161.050254,33.406737 161.158047,32.9216701 161.136719,32.4335938 C161.152945,31.9622109 161.04519,31.4948224 160.824219,31.078125 C160.623458,30.7244725 160.332256,30.430574 159.980469,30.2265625 C159.594617,30.0043021 159.170707,29.8559335 158.730469,29.7890625 C158.225003,29.6994545 157.712565,29.6550083 157.199219,29.65625 Z" id="Shape" fill="#1D1D1B"></path>
                    <path d="M183.203125,35.3632812 L185.222656,35.3632812 L185.222656,42.109375 C185.058594,42.1640625 184.832031,42.2265625 184.503906,42.296875 C184.175781,42.3671875 183.832031,42.4335938 183.421875,42.5039063 C183.011719,42.5742188 182.566406,42.6328125 182.078125,42.6796875 C181.587566,42.7301289 181.094707,42.7549022 180.601562,42.7539063 C179.654946,42.7653966 178.714871,42.5956794 177.832031,42.2539063 C177.01651,41.9339153 176.282569,41.4361695 175.683594,40.796875 C175.065807,40.1194583 174.594985,39.3214554 174.300781,38.453125 C173.959571,37.4203477 173.794508,36.3375338 173.8125,35.25 C173.795447,34.1515664 173.984932,33.0597081 174.371094,32.03125 C174.7041,31.157651 175.210341,30.3604212 175.859375,29.6875 C176.479577,29.0498501 177.229587,28.5529517 178.058594,28.2304688 C178.916634,27.8924278 179.831711,27.7226743 180.753906,27.7304687 C181.335798,27.723822 181.917234,27.7656331 182.492187,27.8554688 C182.931726,27.9227952 183.366284,28.0193637 183.792969,28.1445312 C184.095793,28.234781 184.392063,28.345719 184.679687,28.4765625 C184.840321,28.5514032 184.996798,28.6348579 185.148438,28.7265625 L184.503906,30.4140625 C184.006067,30.1132864 183.464419,29.891883 182.898437,29.7578125 C182.232395,29.5859496 181.547233,29.4993199 180.859375,29.5 C180.169045,29.4901437 179.484133,29.6231362 178.847656,29.890625 C178.252565,30.1471785 177.725566,30.539084 177.308594,31.0351562 C176.863238,31.5728821 176.527493,32.1926163 176.320312,32.859375 C176.073033,33.6370862 175.952998,34.4496339 175.964844,35.265625 C175.957598,36.0569451 176.058799,36.8455274 176.265625,37.609375 C176.445418,38.2719605 176.7577,38.8912083 177.183594,39.4296875 C177.592467,39.9327681 178.11266,40.3339452 178.703125,40.6015625 C179.375866,40.8918324 180.103454,41.0330857 180.835937,41.015625 C181.334967,41.0213212 181.833732,40.9899852 182.328125,40.921875 C182.625803,40.8819263 182.920661,40.8232157 183.210938,40.7460937 L183.203125,35.3632812 Z" id="Shape" fill="#1D1D1B"></path>
                    <path d="M200.164062,42.4609375 L200.164062,36.671875 C199.208333,35.1875 198.30599,33.7239583 197.457031,32.28125 C196.608073,30.8385417 195.809896,29.421875 195.0625,28.03125 L197.433594,28.03125 C197.954427,29.1666667 198.545573,30.3229167 199.207031,31.5 C199.86849,32.6770833 200.541667,33.8046875 201.226562,34.8828125 C201.90625,33.8020833 202.571615,32.6744792 203.222656,31.5 C203.873698,30.3255208 204.471354,29.1692708 205.015625,28.03125 L207.265625,28.03125 C206.515625,29.4192708 205.717448,30.8320312 204.871094,32.2695312 C204.02474,33.7070312 203.128906,35.1614583 202.183594,36.6328125 L202.183594,42.4609375 L200.164062,42.4609375 Z" id="Shape" fill="#1D1D1B"></path>
                </g>
            </g>
        </g>
    </g>
</svg>